<mxfile host="app.diagrams.net" agent="Mozilla/5.0 (Windows NT 10.0; Win64; x64) AppleWebKit/537.36 (KHTML, like Gecko) Chrome/130.0.0.0 Safari/537.36 Edg/130.0.0.0" version="26.0.16">
  <diagram name="第 1 页" id="vYvqGDyg4mxPD7L76Hc7">
    <mxGraphModel dx="983" dy="522" grid="1" gridSize="10" guides="1" tooltips="1" connect="1" arrows="1" fold="1" page="1" pageScale="1" pageWidth="827" pageHeight="1169" math="0" shadow="0">
      <root>
        <mxCell id="0" />
        <mxCell id="1" parent="0" />
        <mxCell id="ESHRpmRf_t_jC4aXFXle-37" value="" style="rounded=0;whiteSpace=wrap;html=1;fillColor=#f5f5f5;fontColor=#333333;strokeColor=#666666;" vertex="1" parent="1">
          <mxGeometry x="544" y="190" width="180" height="320" as="geometry" />
        </mxCell>
        <mxCell id="ESHRpmRf_t_jC4aXFXle-38" value="" style="rounded=0;whiteSpace=wrap;html=1;fillColor=#f5f5f5;fontColor=#333333;strokeColor=#666666;" vertex="1" parent="1">
          <mxGeometry x="775" y="190" width="180" height="320" as="geometry" />
        </mxCell>
        <mxCell id="ESHRpmRf_t_jC4aXFXle-36" value="" style="rounded=0;whiteSpace=wrap;html=1;fillColor=#f5f5f5;fontColor=#333333;strokeColor=#666666;" vertex="1" parent="1">
          <mxGeometry x="312" y="190" width="180" height="320" as="geometry" />
        </mxCell>
        <mxCell id="ESHRpmRf_t_jC4aXFXle-5" value="文档预处理" style="rounded=0;whiteSpace=wrap;html=1;fillColor=#dae8fc;strokeColor=#6c8ebf;" vertex="1" parent="1">
          <mxGeometry x="80" y="130" width="180" height="60" as="geometry" />
        </mxCell>
        <mxCell id="ESHRpmRf_t_jC4aXFXle-7" value="" style="rounded=0;whiteSpace=wrap;html=1;fillColor=#f5f5f5;fontColor=#333333;strokeColor=#666666;" vertex="1" parent="1">
          <mxGeometry x="80" y="190" width="180" height="320" as="geometry" />
        </mxCell>
        <mxCell id="ESHRpmRf_t_jC4aXFXle-8" value="用户问题预处理" style="rounded=0;whiteSpace=wrap;html=1;fillColor=#dae8fc;strokeColor=#6c8ebf;" vertex="1" parent="1">
          <mxGeometry x="312" y="130" width="180" height="60" as="geometry" />
        </mxCell>
        <mxCell id="ESHRpmRf_t_jC4aXFXle-10" value="" style="shape=flexArrow;endArrow=classic;html=1;rounded=0;" edge="1" parent="1">
          <mxGeometry width="50" height="50" relative="1" as="geometry">
            <mxPoint x="260" y="313.37" as="sourcePoint" />
            <mxPoint x="310" y="313" as="targetPoint" />
          </mxGeometry>
        </mxCell>
        <mxCell id="ESHRpmRf_t_jC4aXFXle-11" value="知识增强" style="rounded=0;whiteSpace=wrap;html=1;fillColor=#dae8fc;strokeColor=#6c8ebf;" vertex="1" parent="1">
          <mxGeometry x="544" y="130" width="180" height="60" as="geometry" />
        </mxCell>
        <mxCell id="ESHRpmRf_t_jC4aXFXle-23" style="edgeStyle=orthogonalEdgeStyle;rounded=0;orthogonalLoop=1;jettySize=auto;html=1;entryX=0.5;entryY=0;entryDx=0;entryDy=0;" edge="1" parent="1" source="ESHRpmRf_t_jC4aXFXle-18" target="ESHRpmRf_t_jC4aXFXle-20">
          <mxGeometry relative="1" as="geometry" />
        </mxCell>
        <mxCell id="ESHRpmRf_t_jC4aXFXle-18" value="标准化文档格式，统一转换成markdown文件" style="rounded=0;whiteSpace=wrap;html=1;" vertex="1" parent="1">
          <mxGeometry x="95" y="210" width="150" height="50" as="geometry" />
        </mxCell>
        <mxCell id="ESHRpmRf_t_jC4aXFXle-46" value="" style="edgeStyle=orthogonalEdgeStyle;rounded=0;orthogonalLoop=1;jettySize=auto;html=1;" edge="1" parent="1" source="ESHRpmRf_t_jC4aXFXle-20" target="ESHRpmRf_t_jC4aXFXle-22">
          <mxGeometry relative="1" as="geometry" />
        </mxCell>
        <mxCell id="ESHRpmRf_t_jC4aXFXle-20" value="自定义分段进行文档切块" style="rounded=0;whiteSpace=wrap;html=1;" vertex="1" parent="1">
          <mxGeometry x="95" y="325" width="150" height="50" as="geometry" />
        </mxCell>
        <mxCell id="ESHRpmRf_t_jC4aXFXle-22" value="文档分块存入向量数据库" style="rounded=0;whiteSpace=wrap;html=1;" vertex="1" parent="1">
          <mxGeometry x="95" y="440" width="150" height="50" as="geometry" />
        </mxCell>
        <mxCell id="ESHRpmRf_t_jC4aXFXle-47" value="" style="edgeStyle=orthogonalEdgeStyle;rounded=0;orthogonalLoop=1;jettySize=auto;html=1;" edge="1" parent="1" source="ESHRpmRf_t_jC4aXFXle-27" target="ESHRpmRf_t_jC4aXFXle-30">
          <mxGeometry relative="1" as="geometry" />
        </mxCell>
        <mxCell id="ESHRpmRf_t_jC4aXFXle-27" value="问题在标准答案库中检索" style="rounded=0;whiteSpace=wrap;html=1;" vertex="1" parent="1">
          <mxGeometry x="327" y="200" width="150" height="50" as="geometry" />
        </mxCell>
        <mxCell id="ESHRpmRf_t_jC4aXFXle-49" value="" style="edgeStyle=orthogonalEdgeStyle;rounded=0;orthogonalLoop=1;jettySize=auto;html=1;" edge="1" parent="1" source="ESHRpmRf_t_jC4aXFXle-28" target="ESHRpmRf_t_jC4aXFXle-29">
          <mxGeometry relative="1" as="geometry" />
        </mxCell>
        <mxCell id="ESHRpmRf_t_jC4aXFXle-28" value="大模型进行用户问题改写" style="rounded=0;whiteSpace=wrap;html=1;" vertex="1" parent="1">
          <mxGeometry x="327" y="360" width="150" height="50" as="geometry" />
        </mxCell>
        <mxCell id="ESHRpmRf_t_jC4aXFXle-29" value="给出结果" style="rounded=0;whiteSpace=wrap;html=1;" vertex="1" parent="1">
          <mxGeometry x="327" y="450" width="150" height="50" as="geometry" />
        </mxCell>
        <mxCell id="ESHRpmRf_t_jC4aXFXle-51" style="edgeStyle=orthogonalEdgeStyle;rounded=0;orthogonalLoop=1;jettySize=auto;html=1;entryX=0.5;entryY=0;entryDx=0;entryDy=0;" edge="1" parent="1" source="ESHRpmRf_t_jC4aXFXle-30" target="ESHRpmRf_t_jC4aXFXle-28">
          <mxGeometry relative="1" as="geometry" />
        </mxCell>
        <mxCell id="ESHRpmRf_t_jC4aXFXle-30" value="大模型进行用户意图分析" style="rounded=0;whiteSpace=wrap;html=1;" vertex="1" parent="1">
          <mxGeometry x="327" y="280" width="150" height="50" as="geometry" />
        </mxCell>
        <mxCell id="ESHRpmRf_t_jC4aXFXle-43" value="" style="edgeStyle=orthogonalEdgeStyle;rounded=0;orthogonalLoop=1;jettySize=auto;html=1;" edge="1" parent="1" source="ESHRpmRf_t_jC4aXFXle-31" target="ESHRpmRf_t_jC4aXFXle-32">
          <mxGeometry relative="1" as="geometry" />
        </mxCell>
        <mxCell id="ESHRpmRf_t_jC4aXFXle-31" value="内部知识库中搜索相关问题" style="rounded=0;whiteSpace=wrap;html=1;" vertex="1" parent="1">
          <mxGeometry x="559" y="210" width="150" height="50" as="geometry" />
        </mxCell>
        <mxCell id="ESHRpmRf_t_jC4aXFXle-44" value="" style="edgeStyle=orthogonalEdgeStyle;rounded=0;orthogonalLoop=1;jettySize=auto;html=1;" edge="1" parent="1" source="ESHRpmRf_t_jC4aXFXle-32" target="ESHRpmRf_t_jC4aXFXle-34">
          <mxGeometry relative="1" as="geometry" />
        </mxCell>
        <mxCell id="ESHRpmRf_t_jC4aXFXle-32" value="检索模式：父子检索+全文检索" style="rounded=0;whiteSpace=wrap;html=1;" vertex="1" parent="1">
          <mxGeometry x="559" y="330" width="150" height="50" as="geometry" />
        </mxCell>
        <mxCell id="ESHRpmRf_t_jC4aXFXle-34" value="给出结果" style="rounded=0;whiteSpace=wrap;html=1;" vertex="1" parent="1">
          <mxGeometry x="559" y="450" width="150" height="50" as="geometry" />
        </mxCell>
        <mxCell id="ESHRpmRf_t_jC4aXFXle-35" value="将上诉prompt输入大模型并返回结果" style="rounded=0;whiteSpace=wrap;html=1;" vertex="1" parent="1">
          <mxGeometry x="790" y="450" width="150" height="50" as="geometry" />
        </mxCell>
        <mxCell id="ESHRpmRf_t_jC4aXFXle-39" value="" style="shape=flexArrow;endArrow=classic;html=1;rounded=0;" edge="1" parent="1">
          <mxGeometry width="50" height="50" relative="1" as="geometry">
            <mxPoint x="492" y="315.03000000000003" as="sourcePoint" />
            <mxPoint x="542" y="314.66" as="targetPoint" />
          </mxGeometry>
        </mxCell>
        <mxCell id="ESHRpmRf_t_jC4aXFXle-40" value="" style="shape=flexArrow;endArrow=classic;html=1;rounded=0;" edge="1" parent="1">
          <mxGeometry width="50" height="50" relative="1" as="geometry">
            <mxPoint x="724" y="320.37" as="sourcePoint" />
            <mxPoint x="774" y="320" as="targetPoint" />
          </mxGeometry>
        </mxCell>
        <mxCell id="ESHRpmRf_t_jC4aXFXle-41" value="prompt优化" style="rounded=0;whiteSpace=wrap;html=1;fillColor=#dae8fc;strokeColor=#6c8ebf;" vertex="1" parent="1">
          <mxGeometry x="775" y="130" width="180" height="60" as="geometry" />
        </mxCell>
        <mxCell id="ESHRpmRf_t_jC4aXFXle-42" value="&lt;p dir=&quot;ltr&quot;&gt;&lt;span style=&quot;white-space-collapse: preserve;&quot; class=&quot;align-middle&quot;&gt;&lt;font style=&quot;font-size: 8px;&quot;&gt;你作为上海电气集团的制度智能助手，你的主要任务是根据用户的问题，查询并提供集团内相关的准确制度信息。如果你无法确定问题是否与上海电气集团的制度相关，请回复“无法解答”。&lt;br/&gt;&lt;br/&gt;&lt;/font&gt;&lt;/span&gt;&lt;span style=&quot;background-color: transparent; color: light-dark(rgb(0, 0, 0), rgb(255, 255, 255)); font-size: 8px; white-space-collapse: preserve;&quot;&gt;分析步骤如下：&lt;br/&gt;&lt;/span&gt;&lt;span style=&quot;font-size: 8px; white-space-collapse: preserve; background-color: transparent; color: light-dark(rgb(0, 0, 0), rgb(255, 255, 255));&quot;&gt;1. 首先，理解用户提出的问题，确认它是否涉及到上海电气集团的内部制度。&lt;br/&gt;&lt;/span&gt;&lt;span style=&quot;font-size: 8px; white-space-collapse: preserve; background-color: transparent; color: light-dark(rgb(0, 0, 0), rgb(255, 255, 255));&quot;&gt;2. 如果问题与集团制度无关，直接回复“无法解答”。&lt;br/&gt;&lt;/span&gt;&lt;span style=&quot;font-size: 8px; white-space-collapse: preserve; background-color: transparent; color: light-dark(rgb(0, 0, 0), rgb(255, 255, 255));&quot;&gt;3. 若问题与集团制度相关，请从预先提供的集团制度信息中查找最相关的部分。&lt;br/&gt;&lt;/span&gt;&lt;span style=&quot;font-size: 8px; white-space-collapse: preserve; background-color: transparent; color: light-dark(rgb(0, 0, 0), rgb(255, 255, 255));&quot;&gt;4. 提取并整理查询到的制度信息，确保回答简洁明了且准确无误。&lt;br/&gt;&lt;/span&gt;&lt;span style=&quot;font-size: 8px; white-space-collapse: preserve; background-color: transparent; color: light-dark(rgb(0, 0, 0), rgb(255, 255, 255));&quot;&gt;5. 将整理好的答案作为输出提供给用户。&lt;/span&gt;&lt;/p&gt;" style="text;html=1;align=left;verticalAlign=middle;whiteSpace=wrap;rounded=0;" vertex="1" parent="1">
          <mxGeometry x="780" y="300" width="170" height="10" as="geometry" />
        </mxCell>
        <mxCell id="ESHRpmRf_t_jC4aXFXle-45" value="" style="endArrow=classic;html=1;rounded=0;entryX=0.445;entryY=-0.019;entryDx=0;entryDy=0;entryPerimeter=0;" edge="1" parent="1" target="ESHRpmRf_t_jC4aXFXle-35">
          <mxGeometry width="50" height="50" relative="1" as="geometry">
            <mxPoint x="857" y="420" as="sourcePoint" />
            <mxPoint x="907" y="370" as="targetPoint" />
          </mxGeometry>
        </mxCell>
      </root>
    </mxGraphModel>
  </diagram>
</mxfile>
